#!OML:ASF F:\twosubjects\two\Thursday\Session 1\Rory.ASF
:FULLY-SPECIFIED
:DEGREES
304
root 14.2284 16.1224 8.16422 -155.603 -81.6006 160.662
lowerback 10.7632 0.149485 -2.21752
upperback 2.92488 -0.155113 -0.12582
thorax -2.98028 -0.11515 1.14104
lowerneck -16.6046 1.76132 2.38831
upperneck -0.104299 1.91355 -4.44608
head 2.98045 0.683277 -1.7651
rclavicle -2.28602e-015 4.57205e-015
rhumerus -30.8267 -34.5345 -78.6283
rradius 27.2975
rwrist 13.4504
rhand -27.8939 33.9084
rfingers 7.12502
rthumb -1.28345 3.9325
lclavicle -2.28602e-015 4.57205e-015
lhumerus -37.6184 22.3073 79.5489
lradius 39.6043
lwrist 4.74164
lhand -10.6028 33.2526
lfingers 7.12502
lthumb 15.4031 62.6588
rfemur -32.0191 7.75556 20.9759
rtibia 74.9841
rfoot -31.8453 -4.98524
rtoes -25.2101
lfemur -30.5914 10.6724 -24.4454
ltibia 74.0726
lfoot -32.0678 -10.9123
ltoes 4.31132
305
root 14.2352 16.0821 8.16898 -158.371 -82.0224 162.992
lowerback 11.0386 0.0860299 -1.84153
upperback 3.06698 -0.204617 0.028254
thorax -2.98302 -0.145193 1.09664
lowerneck -16.415 1.66341 2.18269
upperneck -0.155569 1.80544 -4.00213
head 2.91014 0.65243 -1.58483
rclavicle -1.93815e-015 2.127e-014
rhumerus -30.9934 -34.0287 -79.273
rradius 27.5335
rwrist 13.6281
rhand -28.7645 34.8108
rfingers 7.12502
rthumb -2.12424 4.8416
lclavicle -1.93815e-015 2.127e-014
lhumerus -36.7098 21.3276 80.6023
lradius 39.2476
lwrist 3.99283
lhand -10.2986 33.4215
lfingers 7.12502
lthumb 15.6961 62.8049
rfemur -31.3931 7.55962 21.6493
rtibia 74.911
rfoot -31.8526 -7.62425
rtoes -31.4322
lfemur -30.3359 10.472 -23.7705
ltibia 74.4896
lfoot -32.2633 -11.46
ltoes 6.86466
306
root 14.2233 16.0726 8.16976 -158.931 -82.2931 163.262
lowerback 10.94 -0.00627195 -1.83159
upperback 3.13644 -0.320229 0.148464
thorax -2.85219 -0.205106 1.23036
lowerneck -16.2439 1.57334 1.92305
upperneck -0.015525 1.73746 -3.76145
head 2.91575 0.632441 -1.4623
rclavicle 1.56543e-014 7.15625e-015
rhumerus -30.7823 -32.9563 -79.6862
rradius 27.3811
rwrist 13.341
rhand -29.281 35.112
rfingers 7.12502
rthumb -2.62313 5.14842
lclavicle 1.56543e-014 7.15625e-015
lhumerus -36.1216 20.6781 81.3076
lradius 39.3404
lwrist 3.059
lhand -9.46817 34.1675
lfingers 7.12502
lthumb 16.4957 63.4863
rfemur -30.6571 7.3755 21.9066
rtibia 74.4665
rfoot -31.9531 -9.92505
rtoes -35.9376
lfemur -29.8332 10.2657 -23.4893
ltibia 74.3223
lfoot -32.4106 -11.7313
ltoes 6.63398
307
root 14.2076 16.0852 8.16139 -158.948 -82.4138 163.293
lowerback 10.6177 -0.0681944 -1.87135
upperback 2.99418 -0.394227 0.0944755
thorax -2.8205 -0.237219 1.20454
lowerneck -16.199 1.57832 1.89951
upperneck 0.474252 1.77201 -3.59924
head 3.07652 0.661699 -1.40363
rclavicle 1.37161e-014 -1.39149e-015
rhumerus -30.7535 -33.0156 -79.5437
rradius 26.9496
rwrist 13.9763
rhand -29.2022 35.2846
rfingers 7.12502
rthumb -2.54702 5.32007
lclavicle 1.37161e-014 -1.39149e-015
lhumerus -35.8886 20.0696 81.3756
lradius 39.6446
lwrist 2.65072
lhand -9.46492 34.4064
lfingers 7.12502
lthumb 16.4989 63.7249
rfemur -30.1557 7.18927 22.0963
rtibia 73.7996
rfoot -32.4108 -10.4831
rtoes -35.3387
lfemur -29.4463 10.1621 -23.306
ltibia 73.6842
lfoot -32.4183 -12.0857
ltoes 5.76735
308
root 14.1659 16.1441 8.16578 -160.224 -82.3064 164.265
lowerback 10.428 -0.0567094 -1.57892
upperback 2.93134 -0.346896 -0.0650278
thorax -2.78595 -0.212714 0.867402
lowerneck -16.4556 1.52186 1.57003
upperneck 1.40526 1.77242 -3.01888
head 3.43864 0.689934 -1.15333
rclavicle -1.04362e-014 9.93923e-016
rhumerus -31.1265 -34.3472 -78.6789
rradius 26.7479
rwrist 15.2214
rhand -28.8089 35.1401
rfingers 7.12502
rthumb -2.16717 5.1714
lclavicle -1.04362e-014 9.93923e-016
lhumerus -35.811 19.9023 80.987
lradius 40.0332
lwrist 2.21169
lhand -9.87458 34.0282
lfingers 7.12502
lthumb 16.1044 63.3791
rfemur -29.1225 7.29414 22.1779
rtibia 72.8896
rfoot -33.3166 -8.08577
rtoes -27.7829
lfemur -28.261 10.0932 -23.1189
ltibia 72.5134
lfoot -32.4826 -12.4395
ltoes 7.39026
309
root 14.1141 16.2342 8.17337 -158.847 -81.9867 162.961
lowerback 9.6827 -0.0299469 -1.80722
upperback 2.75418 -0.310668 -0.12479
thorax -2.55913 -0.189679 0.925717
lowerneck -16.217 1.35641 1.0239
upperneck 1.92872 1.65585 -2.47348
head 3.55935 0.660311 -0.881803
rclavicle -2.91716e-014 -1.25234e-014
rhumerus -31.7291 -35.9117 -77.1688
rradius 26.7692
rwrist 16.1905
rhand -28.5397 34.9033
rfingers 7.12502
rthumb -1.9072 4.93204
lclavicle -2.91716e-014 -1.25234e-014
lhumerus -35.9178 20.2536 80.5082
lradius 40.6482
lwrist 2.1322
lhand -9.84845 33.6208
lfingers 7.12502
lthumb 16.1296 62.9696
rfemur -28.5719 7.63738 21.7341
rtibia 71.9057
rfoot -33.7013 -5.32861
rtoes -18.6024
lfemur -27.344 10.0794 -23.4797
ltibia 71.0506
lfoot -32.2835 -12.5722
ltoes 9.9185
310
root 14.0637 16.3409 8.17865 -156.887 -81.5323 161.269
lowerback 8.82914 0.0426071 -2.19256
upperback 2.44116 -0.219109 -0.202067
thorax -2.41291 -0.135256 1.0489
lowerneck -15.6122 1.23246 0.993728
upperneck 2.18051 1.51743 -2.42173
head 3.52789 0.603479 -0.870957
rclavicle -3.62285e-014 1.37161e-014
rhumerus -32.4218 -37.1811 -75.5471
rradius 26.9056
rwrist 15.7156
rhand -29.1256 34.6747
rfingers 7.12502
rthumb -2.47299 4.70929
lclavicle -3.62285e-014 1.37161e-014
lhumerus -36.211 20.6755 79.6841
lradius 41.4223
lwrist 2.41985
lhand -9.66382 33.3147
lfingers 7.12502
lthumb 16.3074 62.649
rfemur -28.147 7.80165 21.2415
rtibia 70.6918
rfoot -33.1276 -5.00238
rtoes -17.0043
lfemur -26.6847 10.2586 -24.0174
ltibia 69.4528
lfoot -31.9154 -12.3048
ltoes 10.1346
311
root 14.0109 16.4677 8.18068 -156.629 -81.2723 161.328
lowerback 8.01445 0.101686 -2.04876
upperback 2.10498 -0.101583 -0.377066
thorax -2.31357 -0.0692416 0.773376
lowerneck -15.7472 1.20911 1.28008
upperneck 3.27323 1.47805 -2.43928
head 3.94905 0.591668 -0.935711
rclavicle 5.26779e-015 -3.97569e-015
rhumerus -32.9674 -38.0027 -74.1828
rradius 26.999
rwrist 13.5701
rhand -29.8777 34.5401
rfingers 7.12502
rthumb -3.1993 4.58439
lclavicle 5.26779e-015 -3.97569e-015
lhumerus -36.5221 20.834 78.4099
lradius 42.2195
lwrist 2.61951
lhand -9.96134 33.161
lfingers 7.12502
lthumb 16.0209 62.5186
rfemur -27.6232 7.89564 21.1258
rtibia 69.2728
rfoot -32.0788 -5.36846
rtoes -18.5544
lfemur -26.0804 10.4506 -24.2138
ltibia 67.7938
lfoot -31.4243 -11.7716
ltoes 9.17097
312
root 13.9589 16.6139 8.18512 -158.319 -81.1308 163.326
lowerback 7.26808 0.153057 -1.55741
upperback 1.77578 0.0301473 -0.433444
thorax -2.24214 0.00164909 0.426352
lowerneck -16.2236 1.13141 1.23771
upperneck 5.03048 1.42021 -2.33539
head 4.13433 0.560595 -0.809543
rclavicle 3.61043e-014 -1.86858e-014
rhumerus -33.5415 -38.5768 -72.6471
rradius 27.2839
rwrist 11.0364
rhand -30.879 34.4919
rfingers 7.12502
rthumb -4.16628 4.55294
lclavicle 3.61043e-014 -1.86858e-014
lhumerus -36.9559 20.8006 77.101
lradius 43.2057
lwrist 3.25838
lhand -11.3313 33.623
lfingers 7.12502
lthumb 14.7014 63.0818
rfemur -27.1287 8.16306 21.3206
rtibia 67.7625
rfoot -30.4973 -5.65613
rtoes -21.3032
lfemur -25.4409 10.5107 -24.0756
ltibia 66.0744
lfoot -30.3747 -11.3154
ltoes 9.59949
313
root 13.9095 16.7705 8.2006 -159.753 -80.9576 164.794
lowerback 6.84684 0.182859 -1.22628
upperback 1.51983 0.109234 -0.382974
thorax -2.27242 0.0446468 0.285552
lowerneck -16.1424 1.08008 1.06679
upperneck 5.5803 1.40824 -2.34485
head 4.29104 0.551753 -0.785501
rclavicle -1.11816e-014 9.93923e-015
rhumerus -34.1579 -38.925 -70.8591
rradius 28.0912
rwrist 8.73461
rhand -31.7256 33.9596
rfingers 7.12502
rthumb -4.98376 4.03818
lclavicle -1.11816e-014 9.93923e-015
lhumerus -37.4881 20.9735 75.8114
lradius 44.3085
lwrist 4.27953
lhand -12.9862 34.5036
lfingers 7.12502
lthumb 13.1065 64.0717
rfemur -26.3351 8.17 21.4093
rtibia 66.159
rfoot -28.2408 -7.53291
rtoes -30.4997
lfemur -24.4919 10.3419 -24.0152
ltibia 64.2412
lfoot -28.796 -10.94
ltoes 9.86004
314
root 13.8476 16.9642 8.22335 -158.592 -80.985 163.337
lowerback 6.63512 0.113362 -1.1792
upperback 1.40217 0.0255707 -0.402755
thorax -2.27444 0.00470188 0.246039
lowerneck -15.925 1.08258 1.04407
upperneck 5.69101 1.45531 -2.68659
head 4.29522 0.554295 -0.884639
rclavicle -3.94091e-014 -9.34288e-015
rhumerus -34.7989 -39.0729 -69.1367
rradius 29.5213
rwrist 7.13208
rhand -32.4694 31.7762
rfingers 7.12502
rthumb -5.70196 1.87289
lclavicle -3.94091e-014 -9.34288e-015
lhumerus -37.9005 21.4261 74.3437
lradius 45.1769
lwrist 4.98797
lhand -13.6633 34.8403
lfingers 7.12502
lthumb 12.4537 64.4492
rfemur -25.1506 7.87026 20.8732
rtibia 64.5234
rfoot -26.562 -6.49804
rtoes -32.277
lfemur -23.0748 9.74324 -24.2543
ltibia 62.1917
lfoot -26.6764 -10.8961
ltoes 10.1418
315
root 13.7767 17.1998 8.24413 -155.977 -81.0433 160.529
lowerback 6.26936 -0.00154643 -1.19877
upperback 1.26072 -0.122618 -0.507913
thorax -2.21439 -0.0672395 0.160908
lowerneck -15.7142 0.97562 1.05528
upperneck 5.78221 1.34632 -3.00945
head 4.29131 0.482045 -0.996068
rclavicle -1.15295e-014 3.97569e-015
rhumerus -35.449 -39.1934 -67.4274
rradius 30.9461
rwrist 5.97547
rhand -33.6556 29.6081
rfingers 7.12502
rthumb -6.8471 -0.261137
lclavicle -1.15295e-014 3.97569e-015
lhumerus -38.2145 22.1695 72.5883
lradius 45.665
lwrist 5.01778
lhand -13.557 34.785
lfingers 7.12502
lthumb 12.5563 64.3877
rfemur -24.1089 7.82456 19.8971
rtibia 62.8249
rfoot -24.9066 -1.78062
rtoes -21.6096
lfemur -21.6936 8.93363 -24.6502
ltibia 59.9761
lfoot -24.2068 -10.809
ltoes 8.73093
316
root 13.7117 17.4445 8.26468 -154.241 -81.0262 158.866
lowerback 5.69052 -0.148124 -1.09946
upperback 1.05143 -0.299039 -0.548776
thorax -2.10529 -0.153069 0.0755224
lowerneck -15.6449 0.972555 0.748396
upperneck 6.03682 1.4187 -3.06713
head 4.35955 0.505525 -0.958865
rclavicle 5.46658e-016 5.56597e-015
rhumerus -35.9966 -39.5456 -65.4759
rradius 32.0698
rwrist 4.16919
rhand -33.7283 29.9278
rfingers 7.12502
rthumb -6.91729 0.0607721
lclavicle 5.46658e-016 5.56597e-015
lhumerus -38.4744 22.9827 70.7085
lradius 45.901
lwrist 5.1921
lhand -13.5135 35.0439
lfingers 7.12502
lthumb 12.5982 64.644
rfemur -23.3155 7.98529 19.1072
rtibia 60.9855
rfoot -22.3046 1.37481
rtoes -12.8074
lfemur -20.6476 8.10552 -24.8836
ltibia 57.7294
lfoot -21.5713 -10.7851
ltoes 6.50112
317
root 13.6526 17.6859 8.28287 -153.161 -81.1 157.903
lowerback 5.06568 -0.339892 -1.02852
upperback 0.856945 -0.534463 -0.444544
thorax -1.95346 -0.268209 0.15635
lowerneck -15.7254 1.1763 0.430872
upperneck 6.46715 1.79166 -3.28704
head 4.51358 0.661211 -0.945046
rclavicle -4.87022e-015 1.19271e-015
rhumerus -36.4445 -40.4075 -63.0693
rradius 33.0527
rwrist 1.65404
rhand -31.788 31.5926
rfingers 7.12502
rthumb -5.04401 1.67259
lclavicle -4.87022e-015 1.19271e-015
lhumerus -38.7486 23.2596 69.0026
lradius 46.2355
lwrist 6.20796
lhand -14.1105 35.5967
lfingers 7.12502
lthumb 12.0225 65.2314
rfemur -22.458 7.95576 18.5881
rtibia 58.9484
rfoot -19.5288 1.99484
rtoes -17.9124
lfemur -19.738 7.1728 -24.8723
ltibia 55.4709
lfoot -18.2418 -11.1771
ltoes 6.63953
